<svg width="72" height="72" viewBox="0 0 72 72" fill="none" xmlns="http://www.w3.org/2000/svg">
<path d="M67 5H5V67H67V5Z" fill="#FCD63C" fill-opacity="0.1" stroke="black" stroke-width="2" stroke-linecap="round" stroke-linejoin="round"/>
<path d="M12.37 8V12.5C12.37 13.163 12.1066 13.7989 11.6378 14.2678C11.1689 14.7366 10.533 15 9.87 15C9.25207 15.0009 8.65586 14.7721 8.1972 14.358" stroke="black" stroke-width="2" stroke-linecap="round" stroke-linejoin="round"/>
<path d="M59.63 64V59.5C59.63 58.837 59.8934 58.2011 60.3622 57.7322C60.8311 57.2634 61.467 57 62.13 57C62.7479 56.9991 63.3441 57.2279 63.8028 57.642" stroke="black" stroke-width="2" stroke-linecap="round" stroke-linejoin="round"/>
<path d="M21.29 25.1792C20.6166 25.3292 25.2311 18.7544 32.7158 22.6521C32.7158 22.6521 37.2158 11.8732 47.1267 15.9013C47.1267 15.9013 38.9572 22.1648 41.0999 21.8944C49.3577 20.8524 50.4574 26.2789 50.4574 26.2789C40.386 23.4403 46.0791 31.8806 46.0791 31.8806C39.2254 25.0398 31.6052 26.1628 26.1249 31.1564C26.1249 31.1564 29.0891 23.4403 21.29 25.1792Z" fill="#7851A9" stroke="black" stroke-width="2" stroke-linecap="round" stroke-linejoin="round"/>
<path d="M26.2652 44.6732C25.0542 44.6771 19.9452 48.1115 19.9452 49.6759C19.9452 49.6759 26.5143 47.9059 28.199 48.5081C28.199 48.5081 26.26 52.3232 26.3803 54.3689C26.3803 54.3689 32.752 51.2265 36.2625 51.2265" stroke="black" stroke-width="2" stroke-linecap="round" stroke-linejoin="round"/>
<path d="M46.2591 44.6732C47.4701 44.6771 52.5791 48.1115 52.5791 49.6759C52.5791 49.6759 46.0099 47.9059 44.3252 48.5081C44.3252 48.5081 46.2643 52.3232 46.1439 54.3689C46.1439 54.3689 39.7722 51.2265 36.2617 51.2265" stroke="black" stroke-width="2" stroke-linecap="round" stroke-linejoin="round"/>
<path d="M51.0511 31.3173C52.1274 31.3173 52.9999 30.4448 52.9999 29.3685C52.9999 28.2922 52.1274 27.4197 51.0511 27.4197C49.9748 27.4197 49.1023 28.2922 49.1023 29.3685C49.1023 30.4448 49.9748 31.3173 51.0511 31.3173Z" fill="black"/>
<path d="M49.1023 20.3238C50.1786 20.3238 51.0511 19.4513 51.0511 18.375C51.0511 17.2987 50.1786 16.4262 49.1023 16.4262C48.026 16.4262 47.1535 17.2987 47.1535 18.375C47.1535 19.4513 48.026 20.3238 49.1023 20.3238Z" fill="black"/>
<path d="M20.9488 30.3088C22.0251 30.3088 22.8976 29.4363 22.8976 28.36C22.8976 27.2837 22.0251 26.4112 20.9488 26.4112C19.8725 26.4112 19 27.2837 19 28.36C19 29.4363 19.8725 30.3088 20.9488 30.3088Z" fill="black"/>
<path d="M42.0407 32.99C42.0407 33.3755 41.9264 33.7523 41.7122 34.0728C41.4981 34.3933 41.1937 34.6431 40.8376 34.7906C40.4815 34.9381 40.0896 34.9767 39.7115 34.9015C39.3335 34.8263 38.9862 34.6406 38.7137 34.3681C38.4411 34.0955 38.2555 33.7482 38.1803 33.3702C38.1051 32.9921 38.1437 32.6003 38.2913 32.2441C38.4388 31.888 38.6886 31.5837 39.0091 31.3695C39.3296 31.1554 39.7064 31.0411 40.0919 31.0411C40.6087 31.0414 41.1042 31.2469 41.4696 31.6123C41.835 31.9777 42.0404 32.4732 42.0407 32.99Z" fill="black"/>
<path d="M34.2454 32.99C34.2454 33.3755 34.1311 33.7523 33.9169 34.0728C33.7028 34.3933 33.3984 34.6431 33.0423 34.7906C32.6862 34.9381 32.2943 34.9767 31.9163 34.9015C31.5382 34.8263 31.191 34.6407 30.9184 34.3681C30.6459 34.0955 30.4602 33.7483 30.385 33.3702C30.3098 32.9922 30.3484 32.6003 30.4959 32.2442C30.6435 31.8881 30.8932 31.5837 31.2137 31.3696C31.5342 31.1554 31.911 31.0411 32.2965 31.0411C32.8133 31.0414 33.3088 31.2468 33.6743 31.6123C34.0397 31.9777 34.2451 32.4732 34.2454 32.99Z" fill="black"/>
<path d="M36.1941 42.7365C35.0243 42.7252 33.8736 42.4388 32.835 41.9005C32.6038 41.7849 32.428 41.5822 32.3463 41.337C32.2646 41.0918 32.2836 40.8242 32.3992 40.5931C32.5148 40.3619 32.7175 40.1861 32.9627 40.1044C33.2079 40.0227 33.4755 40.0417 33.7067 40.1573C34.471 40.5695 35.3257 40.7853 36.1941 40.7853C37.0624 40.7853 37.9172 40.5695 38.6815 40.1573C38.7959 40.1001 38.9206 40.0659 39.0482 40.0569C39.1759 40.0478 39.304 40.0639 39.4254 40.1044C39.5469 40.1449 39.6591 40.2088 39.7558 40.2927C39.8525 40.3765 39.9317 40.4786 39.9889 40.5931C40.0462 40.7075 40.0803 40.8321 40.0894 40.9598C40.0985 41.0874 40.0823 41.2156 40.0418 41.337C40.0014 41.4584 39.9374 41.5707 39.8535 41.6674C39.7697 41.7641 39.6676 41.8433 39.5532 41.9005C38.5146 42.4388 37.3639 42.7252 36.1941 42.7365Z" fill="black"/>
</svg>
